<svg height="512" viewBox="0 0 58 58" width="512" xmlns="http://www.w3.org/2000/svg"><g id="003---Red-Star" fill="none" transform="translate(-1)"><circle id="Oval" cx="30" cy="32" fill="#f9eab0" r="26"/><circle id="Oval" cx="30" cy="32" fill="#f0c419" r="22"/><path id="Shape" d="m59 22-29 10v-32c.4636952.0073063.8688068.31519107 1 .76l5.61 18.08c.4159782 1.3471977 1.6600458 2.2670783 3.07 2.27h18.25c.5287532-.0118141.9853108.3679394 1.07.89z" fill="#802f34"/><path id="Shape" d="m30 0v32l-29-10c.07584542-.5001995.4946024-.8770807 1-.9h18.3c1.4099542-.0029217 2.6540218-.9228023 3.07-2.27l5.63-18.07c.1311932-.44480893.5363048-.7526937 1-.76z" fill="#e64c3c"/><path id="Shape" d="m47.79 57.81c-.3653328.2925003-.8846672.2925003-1.25 0l-14.54-11.22c-1.1509973-.8802353-2.7490027-.8802353-3.9 0l-14.64 11.18c-.3653328.2925003-.8846672.2925003-1.25 0l17.79-25.77z" fill="#802f34"/><g fill="#c03a2b"><path id="Shape" d="m42.52 38.13 5.69 18.47c.1470532.4518807-.0246011.9464085-.42 1.21l-17.79-25.81 29-10c.072893.3827971-.0832174.7730731-.4 1l-14.97 11.63c-1.0591664.8241826-1.5005839 2.2160395-1.11 3.5z"/><path id="Shape" d="m30 32-17.79 25.81c-.3953989-.2635915-.5670532-.7581193-.42-1.21l5.69-18.47c.3905839-1.2839605-.0508336-2.6758174-1.11-3.5l-14.95-11.63c-.32431087-.2218656-.48862917-.6130996-.42-1z"/></g></g></svg>