<?xml version="1.0" encoding="iso-8859-1"?>
<!-- Generator: Adobe Illustrator 19.0.0, SVG Export Plug-In . SVG Version: 6.00 Build 0)  -->
<svg version="1.1" id="Capa_1" xmlns="http://www.w3.org/2000/svg" xmlns:xlink="http://www.w3.org/1999/xlink" x="0px" y="0px"
	 viewBox="0 0 512.001 512.001" style="enable-background:new 0 0 512.001 512.001;" xml:space="preserve">
<path style="fill:#EF7F2E;" d="M400.386,512H111.614C100.229,512,91,502.771,91,491.386V20.614C91,9.229,100.229,0,111.614,0
	h288.771C411.771,0,421,9.229,421,20.614v470.771C421,502.771,411.771,512,400.386,512z"/>
<path style="fill:#97F5FF;" d="M400.386,512H111.614C100.229,512,91,502.771,91,491.386V20.614C91,9.229,100.229,0,111.614,0
	h288.771C411.771,0,421,9.229,421,20.614v470.771C421,502.771,411.771,512,400.386,512z"/>
<path style="fill:#00E7FF;" d="M400.375,0h-30.938c11.391,0,20.625,9.225,20.625,20.604v470.793
	c0,11.379-9.234,20.604-20.625,20.604h30.938c11.391,0,20.625-9.225,20.625-20.604V20.604C421,9.225,411.766,0,400.375,0z"/>
<ellipse style="fill:#0087D5;" cx="256" cy="81.899" rx="39.19" ry="39.15"/>
<path style="fill:#006ECB;" d="M313.75,236.427h-115.5v-57.66c0-31.878,25.842-57.72,57.72-57.72h0.06
	c31.878,0,57.72,25.842,57.72,57.72V236.427z"/>
<g>
	<path style="fill:#00CAE1;" d="M173.5,461.295h-49.597c-4.143,0-7.5-3.358-7.5-7.5s3.357-7.5,7.5-7.5H173.5
		c4.143,0,7.5,3.358,7.5,7.5S177.643,461.295,173.5,461.295z"/>
	<path style="fill:#00CAE1;" d="M388,461.295h-49.5c-4.143,0-7.5-3.358-7.5-7.5s3.357-7.5,7.5-7.5H388c4.143,0,7.5,3.358,7.5,7.5
		S392.143,461.295,388,461.295z"/>
</g>
<g>
	<path style="fill:#444455;" d="M276.625,212.76h-41.25v-27.832c0-11.385,9.229-20.614,20.614-20.614h0.021
		c11.385,0,20.614,9.229,20.614,20.614L276.625,212.76L276.625,212.76z"/>
	<path style="fill:#444455;" d="M256.011,388.893h-0.021c-11.385,0-20.614-9.229-20.614-20.614v-27.832h41.25v27.832
		C276.625,379.664,267.396,388.893,256.011,388.893z"/>
	<path style="fill:#444455;" d="M315.775,246.028l-29.168-29.138l19.708-19.688c8.055-8.046,21.114-8.046,29.168,0l0,0
		c8.055,8.046,8.055,21.092,0,29.138L315.775,246.028z"/>
	<path style="fill:#444455;" d="M176.517,356.004L176.517,356.004c-8.055-8.046-8.055-21.092,0-29.138l19.708-19.688l29.168,29.138
		l-19.708,19.688C197.63,364.051,184.571,364.051,176.517,356.004z"/>
	<path style="fill:#444455;" d="M319.91,297.207V256h27.893c11.379,0,20.604,9.225,20.604,20.604l0,0
		c0,11.379-9.225,20.604-20.604,20.604H319.91V297.207z"/>
	<path style="fill:#444455;" d="M143.594,276.604L143.594,276.604c0-11.379,9.225-20.604,20.604-20.604h27.893v41.207h-27.893
		C152.818,297.207,143.594,287.983,143.594,276.604z"/>
	<path style="fill:#444455;" d="M286.607,336.317l29.168-29.138l19.708,19.688c8.055,8.046,8.055,21.092,0,29.138l0,0
		c-8.055,8.046-21.114,8.046-29.168,0L286.607,336.317z"/>
	<path style="fill:#444455;" d="M176.517,197.203L176.517,197.203c8.055-8.046,21.114-8.046,29.168,0l19.708,19.688l-29.168,29.138
		l-19.708-19.688C168.462,218.294,168.462,205.249,176.517,197.203z"/>
</g>
<path style="fill:#5B5B75;" d="M307.047,225.61c-28.194-28.155-73.899-28.155-102.094,0c-28.184,28.165-28.184,73.823,0,101.988
	c28.194,28.155,73.899,28.155,102.094,0C335.231,299.432,335.231,253.775,307.047,225.61z M279.337,299.917
	c-12.891,12.867-33.784,12.867-46.674,0c-12.881-12.877-12.881-33.749,0-46.626c12.891-12.867,33.784-12.867,46.674,0
	C292.218,266.168,292.218,287.039,279.337,299.917z"/>
<path style="fill:#00E7FF;" d="M317.896,474.398H194.104c-11.379,0-20.604-9.225-20.604-20.604l0,0
	c0-11.379,9.225-20.604,20.604-20.604h123.793c11.379,0,20.604,9.225,20.604,20.604l0,0
	C338.5,465.174,329.275,474.398,317.896,474.398z"/>
<g>
</g>
<g>
</g>
<g>
</g>
<g>
</g>
<g>
</g>
<g>
</g>
<g>
</g>
<g>
</g>
<g>
</g>
<g>
</g>
<g>
</g>
<g>
</g>
<g>
</g>
<g>
</g>
<g>
</g>
</svg>
