<svg height="496pt" viewBox="0 0 496 496" width="496pt" xmlns="http://www.w3.org/2000/svg"><path d="m488 248c0 132.546875-107.453125 240-240 240s-240-107.453125-240-240 107.453125-240 240-240 240 107.453125 240 240zm0 0" fill="#85d3c1"/><path d="m408 320h-27.039062c-4.800782-18.640625-15.039063-35.121094-28.960938-47.601562v-26.71875c0-5.28125-1.28125-10.398438-3.679688-14.878907 4.71875 5.757813 11.917969 9.199219 19.679688 9.199219 9.839844 0 18.800781-5.519531 23.121094-14.320312l.878906-1.679688 43.199219 16.238281c12.5625 4.640625 20.800781 16.5625 20.800781 29.921875v49.839844zm0 0" fill="#ff958a"/><path d="m88 320h-48v-49.839844c0-13.359375 8.238281-25.28125 20.800781-29.921875l13.121094-4.957031 30.078125-11.28125.878906 1.679688c4.320313 8.800781 13.28125 14.320312 23.121094 14.320312 7.761719 0 14.960938-3.441406 19.679688-9.199219-2.398438 4.480469-3.679688 9.597657-3.679688 14.878907v54.480468c-11.519531 4-21.679688 10.960938-29.601562 19.839844zm0 0" fill="#ff958a"/><path d="m192 300.160156c-7.519531-2.71875-15.601562-4.160156-24-4.160156s-16.480469 1.441406-24 4.160156v-54.480468c0-5.28125 1.28125-10.398438 3.679688-14.878907 1.441406-1.519531 2.558593-3.28125 3.441406-5.121093l.078125-.160157c3.28125-4.160156 7.761719-7.519531 12.878906-9.597656l59.921875-23.921875.878906 1.679688c4.320313 8.800781 13.28125 14.320312 23.121094 14.320312s18.800781-5.519531 23.121094-14.320312l.878906-1.679688 59.921875 23.921875c5.117187 2.078125 9.597656 5.4375 12.878906 9.597656l.078125.160157c.882813 1.839843 2 3.601562 3.441406 5.121093 2.398438 4.480469 3.679688 9.597657 3.679688 14.878907v26.71875c-16.960938-15.199219-39.359375-24.398438-64-24.398438-38.71875 0-72 22.960938-87.199219 56-2.800781-1.441406-5.761719-2.71875-8.800781-3.839844zm0 0" fill="#ff958a"/><g fill="#f9d48a"><path d="m320 80v40c0-6.640625-2.71875-12.640625-7.039062-16.960938-4.320313-4.320312-10.320313-7.039062-16.960938-7.039062-15.679688 0-30.960938-4.640625-44-13.28125l-4-2.71875-4 2.71875c-13.039062 8.640625-28.320312 13.28125-44 13.28125h-.640625c-12.878906 0-23.359375 10.398438-23.359375 23.359375v-39.359375c0-6.640625.878906-13.039062 2.640625-19.199219 8-29.28125 34.160156-51.121093 65.679687-52.722656 1.199219-.078125 2.398438-.078125 3.679688-.078125s2.480469 0 3.679688.078125c18.398437.960937 35.039062 8.800781 47.199218 21.042969 8.722656 8.640625 15.199219 19.597656 18.5625 31.757812 1.679688 6.082032 2.558594 12.480469 2.558594 19.121094zm0 0"/><path d="m416 128h-96l-1.28125-.480469c.882812-2.320312 1.28125-4.878906 1.28125-7.519531v-40c0-6.640625-.878906-13.039062-2.558594-19.121094 12.878906-12.878906 30.636719-20.800781 50.320313-20.878906h.238281c19.839844 0 37.921875 8.078125 50.878906 21.121094 11.28125 11.199218 18.882813 26.238281 20.640625 42.957031.320313 2.640625.480469 5.28125.480469 7.921875v40c0-13.28125-10.71875-24-24-24zm0 0"/><path d="m56 195.121094v-43.199219c0 13.359375 10.800781 24.078125 24 24.078125h2.71875c3.839844 10.800781 11.441406 19.839844 21.28125 25.601562v22.398438l-30.078125 11.28125c-11.28125-10.160156-17.921875-24.722656-17.921875-40.160156zm0 0"/><path d="m79.359375 128c-12.878906 0-23.359375 10.398438-23.359375 23.359375v-39.359375c0-2.640625.160156-5.28125.480469-7.921875 1.757812-16.71875 9.359375-31.757813 20.640625-42.957031 12.957031-13.042969 31.039062-21.121094 50.878906-21.121094h.238281c19.683594.078125 37.441407 8 50.402344 20.800781-1.761719 6.160157-2.640625 12.558594-2.640625 19.199219v40c0 2.640625.398438 5.121094 1.28125 7.519531l-1.28125.480469h-8c-26 0-51.199219-8.398438-72-24-9.28125 4.558594-15.28125 13.761719-15.839844 24zm0 0"/></g><path d="m416 128h-96v32c0 13.28125 5.359375 25.28125 14.078125 33.921875l9.921875 7.679687v22.398438l.800781 1.519531.078125.160157c1.359375 1.601562 2.480469 3.28125 3.441406 5.121093 4.71875 5.757813 11.917969 9.199219 19.679688 9.199219 9.839844 0 18.800781-5.519531 23.121094-14.320312l.878906-1.679688v-22.480469c9.839844-5.679687 17.441406-14.71875 21.28125-25.519531h2.71875c6.640625 0 12.640625-2.71875 16.960938-7.039062 4.320312-4.320313 7.039062-10.320313 7.039062-16.960938 0-13.28125-10.71875-24-24-24zm0 0" fill="#f5f7fa"/><path d="m312.960938 103.039062c-4.320313-4.320312-10.320313-7.039062-16.960938-7.039062-15.679688 0-30.960938-4.640625-44-13.28125l-4-2.71875-4 2.71875c-13.039062 8.640625-28.320312 13.28125-44 13.28125h-.640625c-12.878906 0-23.359375 10.398438-23.359375 23.359375v.640625c0 2.640625.398438 5.121094 1.28125 7.519531 3.117188 9.601563 12.160156 16.480469 22.71875 16.480469h2.71875c3.839844 10.800781 11.441406 19.839844 21.28125 25.601562v22.398438l.878906 1.679688c4.320313 8.800781 13.28125 14.320312 23.121094 14.320312s18.800781-5.519531 23.121094-14.320312l.878906-1.679688v-22.480469c3.679688-2.078125 6.960938-4.640625 9.921875-7.597656 5.039063-5.042969 8.957031-11.121094 11.359375-17.921875h2.71875c6.640625 0 12.640625-2.71875 16.960938-7.039062 2.640624-2.5625 4.640624-5.839844 5.757812-9.441407.882812-2.320312 1.28125-4.878906 1.28125-7.519531 0-6.640625-2.71875-12.640625-7.039062-16.960938zm0 0" fill="#f5f7fa"/><path d="m168 128c-26 0-51.199219-8.398438-72-24-9.28125 4.558594-15.28125 13.761719-15.839844 24h-.800781c-12.878906 0-23.359375 10.398438-23.359375 23.359375v.5625c0 13.359375 10.800781 24.078125 24 24.078125h2.71875c3.839844 10.800781 11.441406 19.839844 21.28125 25.601562v22.398438l.878906 1.679688c4.320313 8.800781 13.28125 14.320312 23.121094 14.320312 7.761719 0 14.960938-3.441406 19.679688-9.199219.960937-1.839843 2.082031-3.519531 3.441406-5.121093l.078125-.160157.800781-1.519531v-22.480469l9.921875-7.597656c8.71875-8.640625 14.078125-20.640625 14.078125-33.921875v-32zm0 0" fill="#f5f7fa"/><path d="m96.480469 376c-.320313-2.640625-.480469-5.28125-.480469-8 0-18.480469 6.960938-35.28125 18.398438-48 7.921874-8.878906 18.082031-15.839844 29.601562-19.839844 7.519531-2.71875 15.601562-4.160156 24-4.160156s16.480469 1.441406 24 4.160156c3.039062 1.121094 6 2.398438 8.800781 3.839844 15.199219-33.039062 48.480469-56 87.199219-56 24.640625 0 47.039062 9.199219 64 24.398438 13.921875 12.480468 24.160156 28.960937 28.960938 47.601562 2 7.679688 3.039062 15.679688 3.039062 24 28.238281 0 51.601562 20.878906 55.359375 48.078125.480469 2.5625.640625 5.203125.640625 7.921875 0 30.960938-25.039062 56-56 56h-288c-22.078125 0-40-17.921875-40-40 0-6.558594 1.601562-12.800781 4.398438-18.238281 6.640624-12.960938 20.082031-21.761719 35.601562-21.761719zm0 0" fill="#f5f7fa"/><path d="m496 248c0-53.816406-16.960938-104.9375-48.992188-147.945312-5.695312-37.796876-37.878906-66.984376-77.015624-67.949219-37.046876-20.976563-79.167969-32.105469-121.992188-32.105469s-84.945312 11.128906-121.992188 32.105469c-39.136718.972656-71.3125 30.152343-77.015624 67.949219-32.03125 43.015624-48.992188 94.136718-48.992188 147.945312 0 55.214844 17.800781 107.183594 51.257812 150.742188-2.074218 5.371093-3.257812 11.167968-3.257812 17.257812 0 26.472656 21.527344 48 48 48h30.183594c37 20.902344 79.046875 32 121.816406 32 42.761719 0 84.808594-11.097656 121.816406-32h14.183594c35.289062 0 64-28.710938 64-64 0-1.726562-.128906-3.425781-.257812-5.113281 31.53125-42.796875 48.257812-93.511719 48.257812-146.886719zm-53.449219 126.265625c-8.949219-20.273437-28.101562-35.042969-50.933593-37.769531-.203126-2.871094-.546876-5.695313-.976563-8.496094h73.359375v-57.824219c0-16.574219-10.433594-31.632812-25.953125-37.464843l-38.046875-14.253907v-12.648437c7.945312-5.570313 14.457031-13.066406 18.640625-21.914063 16.414063-1.34375 29.359375-15.132812 29.359375-31.878906v-.007813-21.335937c20.894531 35.449219 32 75.488281 32 117.335937 0 45.375-12.960938 88.679688-37.449219 126.257813zm-258.550781-118.265625v33.65625c-5.230469-1.070312-10.566406-1.65625-16-1.65625-5.480469 0-10.832031.558594-16 1.617188v-43.953126c0-3.65625.824219-7.152343 2.3125-10.296874 1.375-1.710938 2.632812-3.542969 3.671875-5.542969 2.429687-2.761719 5.503906-5 9.105469-6.441407l53.503906-21.398437c6.292969 8.734375 16.359375 14.015625 27.40625 14.015625s21.113281-5.28125 27.414062-14.023438l53.507813 21.398438c3.589844 1.441406 6.664063 3.679688 9.101563 6.441406 1.046874 2 2.296874 3.832032 3.671874 5.542969 1.480469 3.152344 2.304688 6.648437 2.304688 10.304687v10.839844c-16.183594-10.390625-35.375-16.503906-56-16.503906-35.910156 0-69.144531 18.800781-88 48.808594v-32.808594zm-73.03125 56h-14.96875v-32h-16v32h-32v-41.824219c0-9.953125 6.257812-18.984375 15.574219-22.480469l36.914062-13.839843c6.304688 8.824219 16.414063 14.144531 27.511719 14.144531 2.742188 0 5.414062-.390625 8-1.007812v47.734374c-9.433594 4.136719-17.910156 10.027344-25.03125 17.273438zm-46.96875-116.839844v-15.617187c3.992188 2.335937 8.503906 3.785156 13.351562 4.191406 4.191407 8.921875 10.640626 16.5625 18.648438 22.160156v12.570313l-20.097656 7.535156c-7.605469-8.414062-11.902344-19.40625-11.902344-30.839844zm8.320312-29.238281c-4.9375-2.785156-8.320312-8.128906-8.320312-14.59375 0-4.105469 1.59375-7.953125 4.496094-10.839844 1.046875-1.039062 2.246094-1.855469 3.503906-2.542969v22.054688c0 2 .113281 3.976562.320312 5.921875zm175.679688-149.921875c35.289062 0 64 28.710938 64 64v12.457031c-4.726562-2.761719-10.144531-4.457031-16-4.457031-14.113281 0-27.785156-4.144531-39.527344-11.96875l-8.472656-5.648438-8.472656 5.648438c-11.742188 7.824219-25.414063 11.96875-40.167969 11.96875-.007813 0-.023437 0-.039063 0-5.480468 0-10.679687 1.519531-15.320312 4.152344v-12.152344c0-35.289062 28.710938-64 64-64zm136 206.113281c-3.046875 6.09375-9.175781 9.886719-16 9.886719-5.0625 0-9.734375-2.105469-13.054688-5.671875-.882812-1.59375-1.855468-3.121094-2.945312-4.574219v-8.113281c5.070312 1.519531 10.441406 2.359375 16 2.359375s10.929688-.816406 16-2.335938zm-120-32c-3.046875 6.09375-9.175781 9.886719-16 9.886719s-12.953125-3.792969-16-9.886719v-8.472656c5.070312 1.519531 10.441406 2.359375 16 2.359375s10.929688-.839844 16-2.359375zm-71.679688-56.191406c-4.9375-2.785156-8.320312-8.128906-8.320312-14.59375 0-4.105469 1.59375-7.953125 4.496094-10.839844 1.03125-1.03125 2.230468-1.832031 3.503906-2.519531v22.03125c0 2 .113281 3.976562.320312 5.921875zm15.679688-30.328125c14.257812-1.304688 27.945312-6.050781 40-13.984375 12.054688 7.933594 25.742188 12.679687 40 13.984375v24.40625c0 22.054688-17.945312 40-40 40s-40-17.945312-40-40zm96 24.40625v-21.769531c4.761719 2.777343 8 7.882812 8 13.777343 0 6.023438-3.390625 11.214844-8.328125 13.945313.207031-1.960937.328125-3.945313.328125-5.953125zm-24 45.886719c8.007812-5.597657 14.449219-13.238281 18.648438-22.152344 4.847656-.40625 9.359374-1.855469 13.351562-4.183594v12.449219c0 18.976562 9.511719 35.753906 24 45.886719v3.203125c-.390625-.167969-.742188-.402344-1.152344-.5625l-54.847656-21.941406zm88 26.113281c-22.054688 0-40-17.945312-40-40v-24h80v24c0 22.054688-17.945312 40-40 40zm-184-40v-12.464844c3.992188 2.335938 8.503906 3.785156 13.351562 4.191406 4.191407 8.921876 10.640626 16.5625 18.648438 22.160157v12.699219l-54.847656 21.933593c-.398438.160157-.753906.390625-1.152344.558594v-3.199219c14.488281-10.125 24-26.902344 24-45.878906zm-72 53.640625c5.070312 1.519531 10.441406 2.359375 16 2.359375s10.929688-.839844 16-2.359375v8.113281c-1.089844 1.453125-2.0625 2.980469-2.945312 4.574219-3.320313 3.566406-7.992188 5.671875-13.054688 5.671875-6.824219 0-12.953125-3.792969-16-9.886719zm56-53.640625c0 22.054688-17.945312 40-40 40s-40-17.945312-40-40v-30.113281c0-6.421875 2.871094-12.328125 7.71875-16.253907 21.167969 14.464844 46.625 22.367188 72.28125 22.367188zm192 86.992188c2.585938.617187 5.257812 1.007812 8 1.007812 11.097656 0 21.207031-5.320312 27.503906-14.136719l36.910156 13.839844c9.328126 3.488281 15.585938 12.519531 15.585938 22.472656v41.824219h-32v-32h-16v32h-13.089844c-5.34375-16.480469-14.703125-31.128906-26.910156-42.871094zm63.679688-80.953126c.207031-1.984374.320312-4 .320312-6.039062v-21.839844c4.785156 2.777344 8 7.945313 8 13.847656 0 6.039063-3.367188 11.304688-8.320312 14.03125zm8.320312-54.039062v12.457031c-4.726562-2.761719-10.144531-4.457031-16-4.457031h-88v-40c0-5.648438-.609375-11.144531-1.71875-16.464844 11.605469-10.023437 26.230469-15.535156 41.71875-15.535156 35.289062 0 64 28.710938 64 64zm-89.480469-75.792969c-7.6875 2.578125-14.933593 6.335938-21.542969 11.167969-4.128906-9.191406-9.914062-17.480469-17.015624-24.445312 13.222656 3.277343 26.109374 7.726562 38.558593 13.277343zm-167.496093 11.167969c-6.617188-4.832031-13.855469-8.589844-21.550782-11.167969 12.449219-5.550781 25.335938-10 38.558594-13.277343-7.09375 6.964843-12.878906 15.253906-17.007812 24.445312zm-47.023438.625c15.480469 0 30.113281 5.519531 41.71875 15.542969-1.117188 5.320312-1.71875 10.816406-1.71875 16.457031v40c-24.070312 0-47.9375-7.953125-67.199219-22.398438l-3.953125-2.96875-4.421875 2.207032c-9.738281 4.871094-16.570312 13.558594-19.203125 23.753906-3.269531.636719-6.335937 1.917969-9.222656 3.550781v-12.144531c0-35.289062 28.710938-64 64-64zm-112 200c0-41.839844 11.097656-81.878906 32-117.335938v64.488282c0 13.320312 4.328125 26.191406 12.121094 36.75l-2.167969.816406c-15.519531 5.824219-25.953125 20.882812-25.953125 37.457031v57.824219h66.824219c-6.839844 11.785156-10.824219 25.425781-10.824219 40 0 .238281.039062.472656.039062.71875-10.949218 1.839844-20.640624 7.386719-27.742187 15.320312-28.898437-39.726562-44.296875-86.464843-44.296875-136.039062zm232 232c-29.046875 0-57.710938-5.535156-84.503906-16h169.015625c-26.792969 10.464844-55.464844 16-84.511719 16zm136-32h-288c-17.648438 0-32-14.351562-32-32s14.351562-32 32-32 32 14.351562 32 32h16c0-23.71875-17.3125-43.433594-39.960938-47.273438 0-.246093-.039062-.480468-.039062-.726562 0-35.289062 28.710938-64 64-64 10.207031 0 20.023438 2.382812 29.167969 7.089844l7.433593 3.820312 3.496094-7.589844c14.335938-31.175781 45.703125-51.320312 79.902344-51.320312 46.03125 0 83.855469 35.542969 87.625 80.617188-31.335938 4.117187-55.625 30.933593-55.625 63.382812h16c0-26.472656 21.527344-48 48-48s48 21.527344 48 48-21.527344 48-48 48zm0 0" fill="#232323"/><path d="m160 416h16v16h-16zm0 0" fill="#232323"/><path d="m192 416h112v16h-112zm0 0" fill="#232323"/></svg>