<svg id="Guide" height="512" viewBox="0 0 512 512" width="512" xmlns="http://www.w3.org/2000/svg" xmlns:xlink="http://www.w3.org/1999/xlink"><linearGradient id="linear-gradient" gradientUnits="userSpaceOnUse" x1="256" x2="256" y1="485" y2="120.122"><stop offset=".322" stop-color="#a163f5"/><stop offset=".466" stop-color="#b074ee"/><stop offset=".752" stop-color="#d8a1dd"/><stop offset=".898" stop-color="#efbad3"/></linearGradient><linearGradient id="linear-gradient-2" x1="258.343" x2="258.343" xlink:href="#linear-gradient" y1="485" y2="120.122"/><path d="m436.106 181.4v-79.5a26.029 26.029 0 0 0 -26-26h-79.506l-56.215-56.224a26.031 26.031 0 0 0 -36.77 0l-56.215 56.218h-79.5a26.029 26.029 0 0 0 -26 26v79.5l-56.223 56.221a26.029 26.029 0 0 0 0 36.77l56.217 56.215v79.5a26.029 26.029 0 0 0 26 26h79.5l56.217 56.217a26.028 26.028 0 0 0 36.77 0l56.219-56.211h79.5a26.029 26.029 0 0 0 26-26v-79.506l56.217-56.217a26.029 26.029 0 0 0 0-36.77zm-26-93.5a14.015 14.015 0 0 1 14 14v67.5l-81.5-81.5zm14 98.474v139.259l-98.473 98.473h-139.266l-98.473-98.473v-139.265l98.473-98.474h139.266zm-178.006-158.212a14.015 14.015 0 0 1 19.8 0l47.733 47.732h-115.266zm-158.206 73.732a14.015 14.015 0 0 1 14-14h67.5l-81.5 81.5zm-59.733 164.006a14.017 14.017 0 0 1 0-19.8l47.733-47.733v115.266zm73.733 158.206a14.015 14.015 0 0 1 -14-14v-67.506l81.5 81.5zm164.006 59.733a14.02 14.02 0 0 1 -19.8 0l-47.733-47.733h115.266zm158.206-73.733a14.015 14.015 0 0 1 -14 14h-67.506l81.5-81.5zm59.733-144.206-47.733 47.733v-115.265l47.733 47.732a14.017 14.017 0 0 1 0 19.8z" fill="url(#linear-gradient)"/><path d="m375.864 191.957a6 6 0 0 0 -.735-1.312 135.138 135.138 0 0 0 -20.852-27.619 6.063 6.063 0 0 0 -1.2-1.22 133.9 133.9 0 0 0 -94.733-39.189c-74.064 0-134.32 60.256-134.32 134.32s60.256 134.32 134.32 134.32a133.852 133.852 0 0 0 92.845-37.346 6 6 0 0 0 1.252-1.223 135.027 135.027 0 0 0 25.476-34.6 5.962 5.962 0 0 0 .645-1.293 133.247 133.247 0 0 0 11.157-31.856 6.227 6.227 0 0 0 .14-.643 134.706 134.706 0 0 0 -2.173-63.628 5.962 5.962 0 0 0 -.274-.962 133.551 133.551 0 0 0 -11.548-27.749zm-6.744 116.814h-104.777v-19.441h111.957a121.331 121.331 0 0 1 -7.18 19.441zm-24 34.285h-80.777v-22.285h98.3a123.18 123.18 0 0 1 -17.521 22.285zm-80.777-115.246h112.806a121.548 121.548 0 0 1 3.01 18.08h-115.816zm0-12v-15.617h102.334a121.646 121.646 0 0 1 6.865 15.617zm0-27.617v-15.616h82.5a123.294 123.294 0 0 1 12.626 15.616zm0-27.616v-25.812a121.7 121.7 0 0 1 69.262 25.812zm0 194.479h66.957a121.652 121.652 0 0 1 -66.96 24.052zm0-77.726v-19.44h116.308a122.577 122.577 0 0 1 -1.7 19.44zm-128.32-20.393a122.472 122.472 0 0 1 116.32-122.172v244.343a122.471 122.471 0 0 1 -116.32-122.171z" fill="url(#linear-gradient-2)"/></svg>