<svg id="Capa_1" enable-background="new 0 0 58 58" height="512" viewBox="0 0 58 58" width="512" xmlns="http://www.w3.org/2000/svg"><path id="Shape" d="m45 15.2 9.6-9.6c.8-.7 2-.6 2.7.1s.8 1.9.1 2.7l-11.3 11.3c-.4.4-1.1.6-1.7.6h-30.8c-.6.1-1.2-.1-1.7-.6l-11.3-11.3c-.8-.8-.8-2 0-2.8s2-.8 2.8 0l9.6 9.6z" fill="#f3d55b"/><path d="m3 32 6.2 23c.5 1.8 2 3 3.9 3h31.9c1.8 0 3.4-1.2 3.9-3l6.1-23-26-5zm17 18c0 1.7-1.3 3-3 3s-3-1.3-3-3v-10c0-1.7 1.3-3 3-3s3 1.3 3 3zm12 0c0 1.7-1.3 3-3 3s-3-1.3-3-3v-10c0-1.7 1.3-3 3-3s3 1.3 3 3zm12 0c0 1.7-1.3 3-3 3s-3-1.3-3-3v-10c0-1.7 1.3-3 3-3s3 1.3 3 3z" fill="#2980ba"/><path d="m15.1 24h-13.1c-1.1 0-2 .9-2 2v4c0 1.1.9 2 2 2h54c1.1 0 2-.9 2-2v-4c0-1.1-.9-2-2-2z" fill="#3b97d3"/><circle id="Oval" cx="29" cy="16" fill="#f29c1f" r="16"/><path d="m29.9 5.7 2.3 4.6c.1.3.4.5.8.5l5.1.7c.4.1.7.3.8.7s0 .8-.2 1l-3.7 3.6c-.2.2-.3.6-.3.9l.9 5.1c.1.4-.1.8-.4 1s-.7.2-1.1.1l-4.5-2.4c-.3-.2-.6-.2-.9 0l-4.7 2.4c-.3.2-.7.2-1.1-.1-.3-.2-.5-.6-.4-1l.9-5.1c.1-.3 0-.7-.3-.9l-3.7-3.6c-.3-.3-.4-.7-.2-1s.4-.6.8-.7l5.1-.7c.3 0 .6-.3.8-.5l2.3-4.6c.2-.3.5-.6.9-.6s.6.2.8.6z" fill="#f3d55b"/></svg>