<svg id="Capa_1" enable-background="new 0 0 512 512" height="512" viewBox="0 0 512 512" width="512" xmlns="http://www.w3.org/2000/svg"><path d="m342.944 165h-86.944-86.902c24.974 69.807 4.188 143.714-48.098 196l30 30h105 105l30-30c-52.22-52.22-72.689-126.566-48.056-196z" fill="#ffe477"/><path d="m391 361c-52.22-52.22-72.689-126.566-48.056-196h-86.944v226h105z" fill="#ffb655"/><path d="m256 90h-105v90h105 105v-90z" fill="#ffb655"/><path d="m256 90h105v90h-105z" fill="#ff9100"/><path d="m346 0v60h-60v-60h-30-30v60h-60v-60h-60v120h150 150v-120z" fill="#ffe477"/><path d="m406 0h-60v60h-60v-60h-30v120h150z" fill="#ffb655"/><path d="m256 361h-135v121h135 135v-121z" fill="#ffb655"/><path d="m256 361h135v121h-135z" fill="#ff9100"/><path d="m256 452h-165v60h165 165v-60z" fill="#575f64"/><path d="m256 452h165v60h-165z" fill="#474f54"/></svg>