<svg id="Capa_1" enable-background="new 0 0 510 510" height="512" viewBox="0 0 510 510" width="512" xmlns="http://www.w3.org/2000/svg" xmlns:xlink="http://www.w3.org/1999/xlink"><linearGradient id="lg1"><stop offset="0" stop-color="#7e8595"/><stop offset="1" stop-color="#555a66"/></linearGradient><linearGradient id="SVGID_1_" gradientUnits="userSpaceOnUse" x1="241.834" x2="299.908" xlink:href="#lg1" y1="438.332" y2="565.368"/><linearGradient id="SVGID_2_" gradientUnits="userSpaceOnUse" x1="344.799" x2="326.274" y1="429.82" y2="551.023"><stop offset="0" stop-color="#7e8595"/><stop offset=".5816" stop-color="#646977"/><stop offset="1" stop-color="#555a66"/></linearGradient><linearGradient id="SVGID_3_" gradientUnits="userSpaceOnUse" x1="216.853" x2="78.537" y1="410.171" y2="264.798"><stop offset="0" stop-color="#bec3d2" stop-opacity="0"/><stop offset=".221" stop-color="#c5c9d7" stop-opacity=".221"/><stop offset=".5343" stop-color="#d7dae3" stop-opacity=".534"/><stop offset=".9014" stop-color="#f6f6f8" stop-opacity=".901"/><stop offset="1" stop-color="#fff"/></linearGradient><linearGradient id="lg2"><stop offset="0" stop-color="#555a66" stop-opacity="0"/><stop offset="1" stop-color="#555a66"/></linearGradient><linearGradient id="SVGID_4_" gradientUnits="userSpaceOnUse" x1="255.39" x2="374.653" xlink:href="#lg2" y1="478.102" y2="607.95"/><linearGradient id="SVGID_5_" gradientUnits="userSpaceOnUse" x1="315.449" x2="259.346" xlink:href="#lg2" y1="456.119" y2="355.028"/><linearGradient id="lg3"><stop offset="0" stop-color="#ffdaaa"/><stop offset=".4213" stop-color="#ffd8a8"/><stop offset=".6519" stop-color="#fed1a0"/><stop offset=".8359" stop-color="#fdc592"/><stop offset=".9951" stop-color="#fcb47f"/><stop offset="1" stop-color="#fcb37e"/></linearGradient><linearGradient id="SVGID_6_" gradientUnits="userSpaceOnUse" x1="208.755" x2="299.267" xlink:href="#lg3" y1="370.875" y2="382.681"/><linearGradient id="lg4"><stop offset="0" stop-color="#fcb37e" stop-opacity="0"/><stop offset="1" stop-color="#ff7044"/></linearGradient><linearGradient id="SVGID_7_" gradientUnits="userSpaceOnUse" x1="266.34" x2="253.638" xlink:href="#lg4" y1="394.533" y2="328.374"/><linearGradient id="lg5"><stop offset="0" stop-color="#ffdaaa"/><stop offset=".5752" stop-color="#fdc592"/><stop offset="1" stop-color="#fcb37e"/></linearGradient><linearGradient id="SVGID_8_" gradientUnits="userSpaceOnUse" x1="126.228" x2="153.221" xlink:href="#lg5" y1="158.567" y2="228.43"/><linearGradient id="SVGID_9_" gradientUnits="userSpaceOnUse" x1="353.714" x2="380.707" xlink:href="#lg5" y1="158.567" y2="228.43"/><radialGradient id="SVGID_10_" cx="215.782" cy="141.422" gradientUnits="userSpaceOnUse" r="199.838" xlink:href="#lg3"/><linearGradient id="SVGID_11_" gradientUnits="userSpaceOnUse" x1="231.153" x2="152.82" y1="129.953" y2="-15.067"><stop offset="0" stop-color="#ffdaaa" stop-opacity="0"/><stop offset="1" stop-color="#fff"/></linearGradient><linearGradient id="SVGID_12_" gradientUnits="userSpaceOnUse" x1="190.109" x2="216.341" xlink:href="#lg1" y1="180.221" y2="206.453"/><linearGradient id="lg6"><stop offset="0" stop-color="#bec3d2" stop-opacity="0"/><stop offset=".3183" stop-color="#c2c7d5" stop-opacity=".318"/><stop offset=".6082" stop-color="#cdd1de" stop-opacity=".608"/><stop offset=".8861" stop-color="#dfe3ed" stop-opacity=".886"/><stop offset="1" stop-color="#e9edf5"/></linearGradient><linearGradient id="SVGID_13_" gradientUnits="userSpaceOnUse" x1="195.352" x2="180.66" xlink:href="#lg6" y1="184.433" y2="163.254"/><linearGradient id="SVGID_14_" gradientUnits="userSpaceOnUse" x1="198.391" x2="226.23" xlink:href="#lg2" y1="195.561" y2="143.783"/><linearGradient id="SVGID_15_" gradientUnits="userSpaceOnUse" x1="304.735" x2="330.967" xlink:href="#lg1" y1="180.221" y2="206.453"/><linearGradient id="SVGID_16_" gradientUnits="userSpaceOnUse" x1="309.978" x2="295.286" xlink:href="#lg6" y1="184.433" y2="163.254"/><linearGradient id="SVGID_17_" gradientUnits="userSpaceOnUse" x1="313.016" x2="340.856" xlink:href="#lg2" y1="195.561" y2="143.783"/><linearGradient id="SVGID_18_" gradientUnits="userSpaceOnUse" x1="293.44" x2="254.274" xlink:href="#lg4" y1="338.671" y2="260.868"/><linearGradient id="lg7"><stop offset="0" stop-color="#f9f7fc"/><stop offset="1" stop-color="#f0ddfc"/></linearGradient><linearGradient id="SVGID_19_" gradientUnits="userSpaceOnUse" x1="248.445" x2="260.618" xlink:href="#lg7" y1="269.047" y2="296.038"/><linearGradient id="lg8"><stop offset="0" stop-color="#f0ddfc" stop-opacity="0"/><stop offset=".2889" stop-color="#c8b7e0" stop-opacity=".289"/><stop offset=".5915" stop-color="#a595c8" stop-opacity=".592"/><stop offset=".8395" stop-color="#8f81b8" stop-opacity=".84"/><stop offset="1" stop-color="#8779b3"/></linearGradient><linearGradient id="SVGID_20_" gradientUnits="userSpaceOnUse" x1="248.068" x2="290.056" xlink:href="#lg8" y1="284.118" y2="331.752"/><linearGradient id="SVGID_21_" gradientUnits="userSpaceOnUse" x1="264" x2="227.658" y1="281.672" y2="262.266"><stop offset="0" stop-color="#e9edf5" stop-opacity="0"/><stop offset="1" stop-color="#fff"/></linearGradient><linearGradient id="SVGID_22_" gradientUnits="userSpaceOnUse" x1="255" x2="255" xlink:href="#lg4" y1="207.665" y2="291.989"/><linearGradient id="SVGID_23_" gradientUnits="userSpaceOnUse" x1="126.379" x2="149.667" xlink:href="#lg7" y1="94.335" y2="118.329"/><linearGradient id="SVGID_24_" gradientUnits="userSpaceOnUse" x1="362.845" x2="429.533" xlink:href="#lg7" y1="70.162" y2="190.836"/><linearGradient id="SVGID_25_" gradientUnits="userSpaceOnUse" x1="408.178" x2="318.554" xlink:href="#lg8" y1="181.302" y2="133.315"/><linearGradient id="lg9"><stop offset="0" stop-color="#ffda45"/><stop offset="1" stop-color="#ffa425"/></linearGradient><linearGradient id="SVGID_26_" gradientUnits="userSpaceOnUse" x1="255" x2="255" xlink:href="#lg9" y1="162.092" y2="168.453"/><linearGradient id="SVGID_27_" gradientUnits="userSpaceOnUse" x1="157.315" x2="228.889" xlink:href="#lg9" y1="134.171" y2="254.985"/><linearGradient id="SVGID_28_" gradientUnits="userSpaceOnUse" x1="231.508" x2="140.313" xlink:href="#lg9" y1="228.767" y2="137.572"/><linearGradient id="lg10"><stop offset="0" stop-color="#f92814" stop-opacity="0"/><stop offset="1" stop-color="#c1272d"/></linearGradient><linearGradient id="SVGID_29_" gradientUnits="userSpaceOnUse" x1="197.406" x2="151.359" xlink:href="#lg10" y1="201.502" y2="125.287"/><linearGradient id="lg11"><stop offset="0" stop-color="#fff" stop-opacity="0"/><stop offset="1" stop-color="#fff"/></linearGradient><linearGradient id="SVGID_30_" gradientUnits="userSpaceOnUse" x1="225.298" x2="146.82" xlink:href="#lg11" y1="222.556" y2="144.078"/><linearGradient id="SVGID_31_" gradientUnits="userSpaceOnUse" x1="293.371" x2="364.945" xlink:href="#lg9" y1="134.171" y2="254.985"/><linearGradient id="SVGID_32_" gradientUnits="userSpaceOnUse" x1="367.564" x2="276.369" xlink:href="#lg9" y1="228.767" y2="137.572"/><linearGradient id="SVGID_33_" gradientUnits="userSpaceOnUse" x1="333.462" x2="287.415" xlink:href="#lg10" y1="201.502" y2="125.287"/><linearGradient id="SVGID_34_" gradientUnits="userSpaceOnUse" x1="361.354" x2="282.876" xlink:href="#lg11" y1="222.556" y2="144.078"/><linearGradient id="SVGID_35_" gradientUnits="userSpaceOnUse" x1="272.99" x2="213.712" xlink:href="#lg4" y1="289.83" y2="96.469"/><linearGradient id="SVGID_36_" gradientUnits="userSpaceOnUse" x1="222.979" x2="222.979" xlink:href="#lg1" y1="388.62" y2="481.239"/><linearGradient id="SVGID_37_" gradientTransform="matrix(-1 0 0 1 449.5 0)" gradientUnits="userSpaceOnUse" x1="162.479" x2="162.479" xlink:href="#lg1" y1="388.62" y2="481.239"/><path d="m354.041 368.822h-198.082c-43.478 0-78.724 35.246-78.724 78.724v54.657c0 4.306 3.491 7.797 7.797 7.797h339.938c4.306 0 7.797-3.491 7.797-7.797v-54.657c-.001-43.478-35.247-78.724-78.726-78.724z" fill="url(#SVGID_1_)"/><path d="m255 510h169.969c4.306 0 7.797-3.491 7.797-7.797v-54.657c0-43.478-35.246-78.724-78.724-78.724h-99.042z" fill="url(#SVGID_2_)"/><path d="m359.646 377.584h-183.982c-40.383 0-73.12 32.737-73.12 73.12v52.054c0 4 3.242 7.242 7.242 7.242h315.183c4.306 0 7.797-3.491 7.797-7.797v-51.499c0-40.383-32.737-73.12-73.12-73.12z" fill="url(#SVGID_3_)"/><path d="m334.336 377.584h-183.982c-40.383 0-73.12 32.737-73.12 73.12v52.054c0 4 3.242 7.242 7.242 7.242h315.183c4.306 0 7.797-3.491 7.797-7.797v-51.499c0-40.383-32.737-73.12-73.12-73.12z" fill="url(#SVGID_4_)"/><path d="m319.635 368.822h-127.548c-.72 1.835-1.129 3.827-1.129 5.917v2.26c0 5.018.705 10.01 2.094 14.832l17.262 59.922c.661 2.295 2.103 4.033 3.895 5.139l53.108 53.108h157.652c4.306 0 7.797-3.491 7.797-7.797v-20.251z" fill="url(#SVGID_5_)"/><path d="m264.075 425.317h-18.15c-21.396 0-38.742-17.345-38.742-38.742v-53.358h95.633v53.358c.001 21.396-17.345 38.742-38.741 38.742z" fill="url(#SVGID_6_)"/><path d="m302.817 386.575v-53.358h-95.633v4.507l79.969 79.969c9.504-7.06 15.664-18.369 15.664-31.118z" fill="url(#SVGID_7_)"/><circle cx="141.257" cy="197.465" fill="url(#SVGID_8_)" r="33.609"/><circle cx="368.743" cy="197.465" fill="url(#SVGID_9_)" r="33.609"/><path d="m255 348.206c-63.009 0-114.088-51.079-114.088-114.088v-120.03c0-63.009 51.079-114.088 114.088-114.088 63.009 0 114.088 51.079 114.088 114.088v120.03c0 63.009-51.079 114.088-114.088 114.088z" fill="url(#SVGID_10_)"/><path d="m255 334.617c-58.091 0-105.184-47.092-105.184-105.183v-110.662c0-58.091 47.092-105.183 105.183-105.183 58.091 0 105.183 47.092 105.183 105.183v110.662c.001 58.091-47.091 105.183-105.182 105.183z" fill="url(#SVGID_11_)"/><circle cx="197.687" cy="187.799" fill="url(#SVGID_12_)" r="20.254"/><circle cx="197.687" cy="187.799" fill="url(#SVGID_13_)" r="16.904"/><path d="m206.747 169.681c1.366 2.726 2.136 5.803 2.136 9.06 0 11.186-9.068 20.254-20.254 20.254-3.257 0-6.334-.77-9.06-2.136 3.325 6.637 10.189 11.194 18.118 11.194 11.186 0 20.254-9.068 20.254-20.254 0-7.929-4.557-14.792-11.194-18.118z" fill="url(#SVGID_14_)"/><circle cx="312.313" cy="187.799" fill="url(#SVGID_15_)" r="20.254"/><circle cx="312.313" cy="187.799" fill="url(#SVGID_16_)" r="16.904"/><path d="m321.373 169.681c1.366 2.726 2.136 5.803 2.136 9.06 0 11.186-9.068 20.254-20.254 20.254-3.257 0-6.334-.77-9.06-2.136 3.325 6.637 10.189 11.194 18.118 11.194 11.186 0 20.254-9.068 20.254-20.254 0-7.929-4.557-14.792-11.194-18.118z" fill="url(#SVGID_17_)"/><path d="m339.388 310.895-44.915-44.915c-4.426-4.869-10.649-8.073-17.624-8.548-.995 1.821-2.308 3.451-3.864 4.816-3.059 2.678-7.071 4.319-11.506 4.319h-12.957c-3.452 0-6.645-1.004-9.337-2.712-.218-.339-.443-.674-.637-1.028-.203.014-.404.038-.606.056-.431-.596-.838-1.209-1.192-1.855-.203.014-.404.038-.606.056-.431-.596-.838-1.209-1.192-1.855-.203.014-.404.038-.606.056-.431-.596-.838-1.209-1.192-1.855-13.666.932-24.463 12.321-24.463 26.231v3.589c0 2.921 1.412 5.509 3.585 7.138l53.323 53.323c29.163-2.686 55.151-16.343 73.789-36.816z" fill="url(#SVGID_18_)"/><path d="m301.311 283.662v3.589c0 4.922-3.991 8.923-8.924 8.923h-74.775c-4.933 0-8.924-4.001-8.924-8.923v-3.589c0-13.909 10.797-25.299 24.463-26.231.593 1.08 1.302 2.096 2.096 3.027 3.186 3.726 7.928 6.108 13.274 6.108h12.957c4.435 0 8.447-1.641 11.506-4.319 1.556-1.366 2.869-2.996 3.864-4.816 13.666.932 24.463 12.322 24.463 26.231z" fill="url(#SVGID_19_)"/><path d="m284.025 283.662v12.512h-66.413c-4.933 0-8.924-4.001-8.924-8.923v-3.589c0-13.909 10.797-25.299 24.463-26.231.593 1.08 1.302 2.096 2.096 3.027 3.186 3.726 7.928 6.108 13.274 6.108h12.957c4.435 0 8.447-1.641 11.506-4.319 6.68 4.765 11.041 12.587 11.041 21.415z" fill="url(#SVGID_20_)"/><path d="m301.311 283.662v3.589c0 4.922-3.991 8.923-8.924 8.923h-62.126c-4.922 0-8.924-4.001-8.924-8.923v-3.589c0-10.035 5.631-18.768 13.909-23.203 3.186 3.726 7.928 6.108 13.274 6.108h12.957c4.435 0 8.447-1.641 11.506-4.319 1.556-1.366 2.869-2.996 3.864-4.816 13.667.931 24.464 12.321 24.464 26.23z" fill="url(#SVGID_21_)"/><path d="m261.481 266.568h-12.962c-10.388 0-18.481-9.01-17.37-19.338l6.777-63h34.148l6.777 63c1.111 10.328-6.982 19.338-17.37 19.338z" fill="url(#SVGID_22_)"/><path d="m134.953 188.867h-10.872c-25.809 0-46.732-20.923-46.732-46.732v-50.28c0-34.091 27.637-61.728 61.728-61.728h38.799c-13.015 11.2-20.5 27.518-20.5 44.689v91.628c0 12.384-10.039 22.423-22.423 22.423z" fill="url(#SVGID_23_)"/><path d="m375.047 188.867h10.872c25.809 0 46.732-20.923 46.732-46.732v-50.28c0-34.091-27.637-61.728-61.728-61.728h-38.799c13.015 11.2 20.5 27.518 20.5 44.689v91.628c0 12.384 10.039 22.423 22.423 22.423z" fill="url(#SVGID_24_)"/><path d="m379.432 139.396h-6.934v49.316c.838.095 1.686.155 2.549.155h10.872c11.951 0 22.849-4.492 31.112-11.872z" fill="url(#SVGID_25_)"/><path d="m239.231 157.858h31.538v13.521h-31.538z" fill="url(#SVGID_26_)"/><path d="m239.873 137.312h-105.802c-2.352 0-4.258 2.16-4.258 4.824v84.188c0 2.665 1.906 4.824 4.258 4.824h105.803c2.352 0 4.258-2.16 4.258-4.824v-84.188c-.001-2.664-1.907-4.824-4.259-4.824zm-7.22 78.979c0 2.184-1.562 3.954-3.49 3.954h-84.382c-1.928 0-3.49-1.77-3.49-3.954v-64.122c0-2.184 1.562-3.954 3.49-3.954h84.382c1.928 0 3.49 1.77 3.49 3.954z" fill="url(#SVGID_27_)"/><path d="m138.481 226.687h96.982c2.141 0 3.878-1.968 3.878-4.394v-76.126c0-2.426-1.737-4.394-3.878-4.394h-96.982c-2.141 0-3.878 1.968-3.878 4.394v76.126c.001 2.426 1.737 4.394 3.878 4.394zm2.81-74.518c0-2.184 1.562-3.954 3.49-3.954h84.382c1.928 0 3.49 1.77 3.49 3.954v64.122c0 2.184-1.562 3.954-3.49 3.954h-84.382c-1.928 0-3.49-1.77-3.49-3.954z" fill="url(#SVGID_28_)"/><path d="m244.131 226.324v-84.188c0-1.018-.28-1.962-.755-2.74l-12.148 9.59c.863.72 1.426 1.876 1.426 3.184v64.122c0 2.184-1.562 3.954-3.49 3.954h-84.382c-.941 0-1.794-.424-2.422-1.11l-12.029 9.495c.722 1.5 2.126 2.518 3.74 2.518h105.803c2.351 0 4.257-2.16 4.257-4.825z" fill="url(#SVGID_29_)"/><path d="m141.291 152.169c0-2.184 1.562-3.954 3.49-3.954h84.382c1.928 0 3.49 1.77 3.49 3.954v64.122c0 2.184-1.562 3.954-3.49 3.954h-84.382c-1.928 0-3.49-1.77-3.49-3.954z" fill="url(#SVGID_30_)"/><path d="m375.929 137.312h-105.802c-2.352 0-4.258 2.16-4.258 4.824v84.188c0 2.665 1.906 4.824 4.258 4.824h105.803c2.352 0 4.258-2.16 4.258-4.824v-84.188c-.001-2.664-1.907-4.824-4.259-4.824zm-7.22 78.979c0 2.184-1.562 3.954-3.49 3.954h-84.382c-1.928 0-3.49-1.77-3.49-3.954v-64.122c0-2.184 1.562-3.954 3.49-3.954h84.382c1.928 0 3.49 1.77 3.49 3.954z" fill="url(#SVGID_31_)"/><path d="m274.537 226.687h96.982c2.141 0 3.878-1.968 3.878-4.394v-76.126c0-2.426-1.737-4.394-3.878-4.394h-96.982c-2.141 0-3.878 1.968-3.878 4.394v76.126c.001 2.426 1.737 4.394 3.878 4.394zm2.81-74.518c0-2.184 1.562-3.954 3.49-3.954h84.382c1.928 0 3.49 1.77 3.49 3.954v64.122c0 2.184-1.562 3.954-3.49 3.954h-84.382c-1.928 0-3.49-1.77-3.49-3.954z" fill="url(#SVGID_32_)"/><path d="m380.187 226.324v-84.188c0-1.018-.28-1.962-.755-2.74l-12.148 9.59c.863.72 1.426 1.876 1.426 3.184v64.122c0 2.184-1.562 3.954-3.49 3.954h-84.382c-.941 0-1.794-.424-2.422-1.11l-12.029 9.495c.722 1.5 2.126 2.518 3.74 2.518h105.803c2.351 0 4.257-2.16 4.257-4.825z" fill="url(#SVGID_33_)"/><path d="m277.347 152.169c0-2.184 1.562-3.954 3.49-3.954h84.382c1.928 0 3.49 1.77 3.49 3.954v64.122c0 2.184-1.562 3.954-3.49 3.954h-84.382c-1.928 0-3.49-1.77-3.49-3.954z" fill="url(#SVGID_34_)"/><path d="m369.09 231.148v2.974c0 62.031-49.508 112.491-111.168 114.037l-117.012-117.011h98.963c2.35 0 4.255-2.159 4.255-4.827v-54.938h21.743v54.938c0 2.668 1.905 4.827 4.255 4.827z" fill="url(#SVGID_35_)"/><path d="m207.183 358.514 47.817 66.803-29.601 30.242c-4.826 4.93-13.175 2.824-15.085-3.805l-17.262-59.922c-1.389-4.822-2.094-9.814-2.094-14.832v-2.26c0-8.962 7.264-16.226 16.225-16.226z" fill="url(#SVGID_36_)"/><path d="m302.817 358.514-47.817 66.803 29.601 30.242c4.826 4.93 13.175 2.824 15.085-3.805l17.262-59.922c1.389-4.822 2.094-9.814 2.094-14.832v-2.26c0-8.962-7.265-16.226-16.225-16.226z" fill="url(#SVGID_37_)"/></svg>